# This file uses centimeters as units for non-parametric coordinates.

mtllib door2.mtl
g default
v -4.550544 -0.447353 7.321601
v -4.550544 -0.447353 -5.495511
v -4.550544 27.209256 7.321601
v -4.550544 27.209256 -5.495511
v -5.033372 27.209256 7.321601
v -5.033372 27.209256 -5.495511
v -5.033372 -0.447353 7.321601
v -5.033372 -0.447353 -5.495511
v -5.033372 27.209256 -3.664495
v -5.033372 -0.447353 -3.664495
v -4.550544 -0.447353 -3.664495
v -4.550544 27.209256 -3.664495
v -5.033372 27.209256 -1.833479
v -5.033372 -0.447353 -1.833479
v -4.550544 -0.447353 -1.833479
v -4.550544 27.209256 -1.833479
v -5.033372 27.209256 -0.002463
v -5.033372 -0.447353 -0.002463
v -4.550544 -0.447353 -0.002463
v -4.550544 27.209256 -0.002463
v -5.033372 27.209256 1.828553
v -5.033372 -0.447353 1.828553
v -4.550544 -0.447353 1.828553
v -4.550544 27.209256 1.828553
v -5.033372 27.209256 3.659569
v -5.033372 -0.447353 3.659569
v -4.550544 -0.447353 3.659569
v -4.550544 27.209256 3.659569
v -5.033372 27.209256 5.490585
v -5.033372 -0.447353 5.490585
v -4.550544 -0.447353 5.490585
v -4.550544 27.209256 5.490585
v -5.033372 24.814310 -5.495511
v -5.033372 24.814310 -3.664495
v -5.033372 25.968847 -1.833479
v -5.033372 25.968847 -0.002463
v -5.033372 25.968847 1.828553
v -5.033372 25.968847 3.659569
v -5.033372 24.814310 5.490585
v -5.033372 24.814310 7.321601
v -4.550544 24.814310 7.321601
v -4.550544 24.814310 5.490585
v -4.550544 24.814310 3.659569
v -4.550544 24.814310 1.828553
v -4.550544 24.814310 -0.002463
v -4.550544 24.814310 -1.833479
v -4.550544 24.814310 -3.664495
v -4.550544 24.814310 -5.495511
v -5.033372 1.723123 -5.495511
v -5.033372 1.723123 -3.664495
v -5.033372 1.723123 -1.833479
v -5.033372 1.723123 -0.002463
v -5.033372 1.723123 1.828553
v -5.033372 1.723123 3.659569
v -5.033372 1.723123 5.490585
v -5.033372 1.723123 7.321601
v -4.550544 1.723123 7.321601
v -4.550544 1.723123 5.490585
v -4.550544 1.723123 3.659569
v -4.550544 1.723123 1.828553
v -4.550544 1.723123 -0.002463
v -4.550544 1.723123 -1.833479
v -4.550544 1.723123 -3.664495
v -4.550544 1.723123 -5.495511
v -5.033372 13.414229 -5.495511
v -5.033372 13.414229 -3.664495
v -5.033372 12.147760 -1.833479
v -5.033372 12.147760 -0.002463
v -5.033372 12.147760 1.828553
v -5.033372 12.147760 3.659569
v -5.033372 13.414229 5.490585
v -5.033372 13.414229 7.321601
v -4.550544 12.734360 7.321601
v -4.550544 12.734360 5.490585
v -4.550544 12.734360 3.659569
v -4.550544 12.734360 1.828553
v -4.550544 12.734360 -0.002463
v -4.550544 12.734360 -1.833479
v -4.550544 12.734360 -3.664495
v -4.550544 12.734360 -5.495511
v -5.033372 10.465703 -5.495511
v -5.033372 10.465703 -3.664495
v -5.033372 11.067956 -1.833479
v -5.033372 11.067956 -0.002463
v -5.033372 11.067956 1.828553
v -5.033372 11.067956 3.659569
v -5.033372 10.465703 5.490585
v -5.033372 10.465703 7.321601
v -4.550544 10.465703 7.321601
v -4.550544 10.465703 5.490585
v -4.550544 10.465703 3.659569
v -4.550544 10.465703 1.828553
v -4.550544 10.465703 -0.002463
v -4.550544 10.465703 -1.833479
v -4.550544 10.465703 -3.664495
v -4.550544 10.465703 -5.495511
v -4.843795 23.974989 -3.519698
v -4.843795 24.959987 -1.827963
v -4.843795 14.240585 -3.519698
v -4.843795 13.158315 -1.827963
v -4.843795 24.959139 -0.002463
v -4.843795 13.157469 -0.002463
v -4.843795 24.959139 1.828553
v -4.843795 13.157469 1.828553
v -4.843795 24.959987 3.654054
v -4.843795 13.158315 3.654054
v -4.843795 23.974986 5.345787
v -4.843795 14.240585 5.345787
v -4.843795 9.852842 -3.526990
v -4.843795 10.376181 -1.831609
v -4.843795 2.387650 -3.526990
v -4.843795 2.396732 -1.831609
v -4.843795 10.385263 -0.002463
v -4.843795 2.405815 -0.002463
v -4.843795 10.385263 1.828553
v -4.843795 2.405815 1.828553
v -4.843795 10.376181 3.657700
v -4.843795 2.396732 3.657700
v -4.843795 9.852842 5.353079
v -4.843795 2.387650 5.353079
vt 0.375000 0.000000
vt 0.625000 0.000000
vt 0.375000 0.250000
vt 0.625000 0.250000
vt 0.375000 0.500000
vt 0.625000 0.500000
vt 0.375000 0.750000
vt 0.625000 0.750000
vt 0.375000 1.000000
vt 0.625000 1.000000
vt 0.875000 0.000000
vt 0.875000 0.250000
vt 0.125000 0.000000
vt 0.125000 0.250000
vt 0.589286 0.500000
vt 0.589286 0.750000
vt 0.589286 0.000000
vt 0.589286 1.000000
vt 0.589286 0.250000
vt 0.553571 0.500000
vt 0.553571 0.750000
vt 0.553571 0.000000
vt 0.553571 1.000000
vt 0.553571 0.250000
vt 0.517857 0.500000
vt 0.517857 0.750000
vt 0.517857 0.000000
vt 0.517857 1.000000
vt 0.517857 0.250000
vt 0.482143 0.500000
vt 0.482143 0.750000
vt 0.482143 0.000000
vt 0.482143 1.000000
vt 0.482143 0.250000
vt 0.446429 0.500000
vt 0.446429 0.750000
vt 0.446429 0.000000
vt 0.446429 1.000000
vt 0.446429 0.250000
vt 0.410714 0.500000
vt 0.410714 0.750000
vt 0.410714 0.000000
vt 0.410714 1.000000
vt 0.410714 0.250000
vt 0.625000 0.521649
vt 0.875000 0.228351
vt 0.589286 0.521649
vt 0.553571 0.521649
vt 0.517857 0.521649
vt 0.482143 0.521649
vt 0.446429 0.521649
vt 0.410714 0.521649
vt 0.125000 0.228351
vt 0.375000 0.521649
vt 0.375000 0.228351
vt 0.410714 0.228351
vt 0.446429 0.228351
vt 0.482143 0.228351
vt 0.517857 0.228351
vt 0.553571 0.228351
vt 0.589286 0.228351
vt 0.625000 0.228351
vt 0.625000 0.730380
vt 0.875000 0.019620
vt 0.589286 0.730380
vt 0.553571 0.730380
vt 0.517857 0.730380
vt 0.482143 0.730380
vt 0.446429 0.730380
vt 0.410714 0.730380
vt 0.125000 0.019620
vt 0.375000 0.730380
vt 0.375000 0.019620
vt 0.410714 0.019620
vt 0.446429 0.019620
vt 0.482143 0.019620
vt 0.517857 0.019620
vt 0.553571 0.019620
vt 0.589286 0.019620
vt 0.625000 0.019620
vt 0.625000 0.630845
vt 0.875000 0.119155
vt 0.589286 0.630845
vt 0.553571 0.630845
vt 0.517857 0.630845
vt 0.482143 0.630845
vt 0.446429 0.630845
vt 0.410714 0.630845
vt 0.125000 0.119155
vt 0.375000 0.630845
vt 0.375000 0.119155
vt 0.410714 0.119155
vt 0.446429 0.119155
vt 0.482143 0.119155
vt 0.517857 0.119155
vt 0.553571 0.119155
vt 0.589286 0.119155
vt 0.625000 0.119155
vt 0.625000 0.651352
vt 0.875000 0.098648
vt 0.589286 0.651352
vt 0.553571 0.651352
vt 0.517857 0.651352
vt 0.482143 0.651352
vt 0.446429 0.651352
vt 0.410714 0.651352
vt 0.125000 0.098648
vt 0.375000 0.651352
vt 0.375000 0.098648
vt 0.410714 0.098648
vt 0.446429 0.098648
vt 0.482143 0.098648
vt 0.517857 0.098648
vt 0.553571 0.098648
vt 0.589286 0.098648
vt 0.625000 0.098648
vt 0.553571 0.521649
vt 0.589286 0.521649
vt 0.589286 0.630845
vt 0.553571 0.630845
vt 0.517857 0.521649
vt 0.517857 0.630845
vt 0.482143 0.521649
vt 0.482143 0.630845
vt 0.446429 0.521649
vt 0.446429 0.630845
vt 0.410714 0.521649
vt 0.410714 0.630845
vt 0.553571 0.651352
vt 0.589286 0.651352
vt 0.589286 0.730380
vt 0.553571 0.730380
vt 0.517857 0.651352
vt 0.517857 0.730380
vt 0.482143 0.651352
vt 0.482143 0.730380
vt 0.446429 0.651352
vt 0.446429 0.730380
vt 0.410714 0.651352
vt 0.410714 0.730380
vn 1.000000 0.000000 0.000000
vn 1.000000 0.000000 0.000000
vn 1.000000 0.000000 0.000000
vn 1.000000 0.000000 0.000000
vn 0.000000 1.000000 0.000000
vn 0.000000 1.000000 0.000000
vn 0.000000 1.000000 0.000000
vn 0.000000 1.000000 0.000000
vn -1.000000 0.000000 -0.000000
vn -1.000000 0.000000 -0.000000
vn -0.999914 -0.011205 -0.006805
vn -1.000000 0.000000 -0.000000
vn 0.000000 -1.000000 0.000000
vn 0.000000 -1.000000 0.000000
vn 0.000000 -1.000000 0.000000
vn 0.000000 -1.000000 0.000000
vn 0.000000 0.000000 -1.000000
vn 0.000000 0.000000 -1.000000
vn 0.000000 0.000000 -1.000000
vn 0.000000 0.000000 -1.000000
vn -0.000000 0.000000 1.000000
vn -0.000000 0.000000 1.000000
vn -0.000000 0.000000 1.000000
vn -0.000000 0.000000 1.000000
vn -1.000000 0.000000 -0.000000
vn -1.000000 0.000000 -0.000000
vn -1.000000 0.000000 -0.000000
vn -0.999914 -0.011205 0.006805
vn 0.000000 -1.000000 0.000000
vn 0.000000 -1.000000 0.000000
vn 0.000000 -1.000000 0.000000
vn 0.000000 -1.000000 0.000000
vn 1.000000 0.000000 0.000000
vn 1.000000 0.000000 0.000000
vn 1.000000 0.000000 0.000000
vn 1.000000 0.000000 0.000000
vn 0.000000 1.000000 0.000000
vn 0.000000 1.000000 0.000000
vn 0.000000 1.000000 0.000000
vn 0.000000 1.000000 0.000000
vn -1.000000 0.000000 -0.000000
vn -0.997392 -0.069213 0.020458
vn 0.000000 -1.000000 0.000000
vn 0.000000 -1.000000 0.000000
vn 1.000000 0.000000 0.000000
vn 1.000000 0.000000 0.000000
vn 0.000000 1.000000 0.000000
vn 0.000000 1.000000 0.000000
vn -1.000000 0.000000 -0.000000
vn -0.996472 -0.083928 -0.000010
vn 0.000000 -1.000000 0.000000
vn 0.000000 -1.000000 0.000000
vn 1.000000 0.000000 0.000000
vn 1.000000 0.000000 0.000000
vn 0.000000 1.000000 0.000000
vn 0.000000 1.000000 0.000000
vn -1.000000 0.000000 -0.000000
vn -0.996472 -0.083928 0.000010
vn 0.000000 -1.000000 0.000000
vn 0.000000 -1.000000 0.000000
vn 1.000000 0.000000 0.000000
vn 1.000000 0.000000 0.000000
vn 0.000000 1.000000 0.000000
vn 0.000000 1.000000 0.000000
vn -1.000000 0.000000 -0.000000
vn -0.997392 -0.069213 -0.020458
vn 0.000000 -1.000000 0.000000
vn 0.000000 -1.000000 0.000000
vn 1.000000 0.000000 0.000000
vn 1.000000 0.000000 0.000000
vn 0.000000 1.000000 0.000000
vn 0.000000 1.000000 0.000000
vn -1.000000 0.000000 -0.000000
vn -0.999916 0.010765 0.007177
vn -0.999842 -0.017019 0.005106
vn -0.999854 -0.014593 0.008863
vn -0.999850 0.014401 0.009601
vn -0.999837 0.017149 0.005656
vn -0.999890 -0.014805 -0.000002
vn -0.999890 0.014807 0.000002
vn -0.999890 -0.014805 0.000002
vn -0.999890 0.014807 -0.000002
vn -0.999842 -0.017019 -0.005106
vn -0.999837 0.017149 -0.005656
vn -0.999854 -0.014593 -0.008863
vn -0.999850 0.014401 -0.009601
vn -0.999916 0.010765 -0.007177
vn -1.000000 0.000000 -0.000000
vn -0.000000 0.000000 1.000000
vn -0.000000 0.000000 1.000000
vn 1.000000 0.000000 0.000000
vn 1.000000 0.000000 0.000000
vn 1.000000 0.000000 0.000000
vn 1.000000 0.000000 0.000000
vn 1.000000 0.000000 0.000000
vn 1.000000 0.000000 0.000000
vn 1.000000 0.000000 0.000000
vn 1.000000 0.000000 0.000000
vn 0.000000 0.000000 -1.000000
vn 0.000000 0.000000 -1.000000
vn -0.999915 0.013077 -0.000034
vn -1.000000 0.000000 -0.000000
vn -1.000000 0.000000 -0.000000
vn -1.000000 0.000000 -0.000000
vn -0.997849 0.065556 -0.000166
vn -1.000000 0.000000 -0.000000
vn -0.997797 0.066338 -0.000082
vn -1.000000 0.000000 -0.000000
vn -0.997797 0.066338 0.000082
vn -1.000000 0.000000 -0.000000
vn -0.997849 0.065556 0.000166
vn -1.000000 0.000000 -0.000000
vn -0.999914 0.013077 0.000034
vn -1.000000 0.000000 -0.000000
vn -1.000000 0.000000 -0.000000
vn -1.000000 0.000000 -0.000000
vn -0.000000 0.000000 1.000000
vn -0.000000 0.000000 1.000000
vn -0.000000 0.000000 1.000000
vn -0.000000 0.000000 1.000000
vn 1.000000 0.000000 0.000000
vn 1.000000 0.000000 0.000000
vn 1.000000 0.000000 0.000000
vn 1.000000 0.000000 0.000000
vn 1.000000 0.000000 0.000000
vn 1.000000 0.000000 0.000000
vn 1.000000 0.000000 0.000000
vn 1.000000 0.000000 0.000000
vn 1.000000 0.000000 0.000000
vn 1.000000 0.000000 0.000000
vn 1.000000 0.000000 0.000000
vn 1.000000 0.000000 0.000000
vn 1.000000 0.000000 0.000000
vn 1.000000 0.000000 0.000000
vn 1.000000 0.000000 0.000000
vn 1.000000 0.000000 0.000000
vn 0.000000 0.000000 -1.000000
vn 0.000000 0.000000 -1.000000
vn 0.000000 0.000000 -1.000000
vn 0.000000 0.000000 -1.000000
vn -1.000000 0.000000 -0.000000
vn -0.999911 -0.012746 0.004068
vn -0.997452 0.067851 0.022016
vn -0.996714 -0.080014 0.012598
vn -0.995913 0.090313 0.000010
vn -0.994281 -0.106792 0.000132
vn -0.995913 0.090313 -0.000010
vn -0.994281 -0.106792 -0.000132
vn -0.997452 0.067851 -0.022016
vn -0.996714 -0.080014 -0.012598
vn -0.999910 -0.012746 -0.004068
vn -1.000000 0.000000 -0.000000
vn -0.000000 0.000000 1.000000
vn -0.000000 0.000000 1.000000
vn 1.000000 0.000000 0.000000
vn 1.000000 0.000000 0.000000
vn 1.000000 0.000000 0.000000
vn 1.000000 0.000000 0.000000
vn 1.000000 0.000000 0.000000
vn 1.000000 0.000000 0.000000
vn 1.000000 0.000000 0.000000
vn 1.000000 0.000000 0.000000
vn 0.000000 0.000000 -1.000000
vn 0.000000 0.000000 -1.000000
vn -0.999715 -0.023565 0.003731
vn -0.999737 -0.021848 0.006974
vn -0.999716 0.023824 -0.000061
vn -0.999744 0.022620 -0.000057
vn -0.999760 -0.021896 0.000027
vn -0.999761 0.021876 -0.000027
vn -0.999760 -0.021896 -0.000027
vn -0.999761 0.021876 0.000027
vn -0.999715 -0.023565 -0.003731
vn -0.999744 0.022620 0.000057
vn -0.999737 -0.021848 -0.006974
vn -0.999716 0.023824 0.000061
vn -0.606992 0.000000 0.794708
vn -0.606992 0.000000 0.794708
vn -0.606992 0.000000 0.794708
vn -0.606992 0.000000 0.794708
vn -0.606993 0.000000 -0.794707
vn -0.606993 0.000000 -0.794707
vn -0.606993 0.000000 -0.794707
vn -0.606993 0.000000 -0.794707
vn -0.587143 0.000000 0.809483
vn -0.587143 0.000000 0.809483
vn -0.587143 0.000000 0.809483
vn -0.587143 0.000000 0.809483
vn -0.587143 0.000000 -0.809483
vn -0.587143 0.000000 -0.809483
vn -0.587143 0.000000 -0.809483
vn -0.587143 0.000000 -0.809483
s 1
f 41/55/1 42/56/2 32/44/3 3/3/4
s 2
f 3/3/5 32/44/6 29/40/7 5/5/8
s 3
f 5/5/9 29/40/10 39/52/11 40/54/12
s 4
f 7/7/13 30/41/14 31/43/15 1/9/16
s 5
f 48/62/17 33/46/18 6/12/19 4/4/20
s 6
f 40/53/21 41/55/22 3/3/23 5/14/24
s 3
f 9/15/25 6/6/26 33/45/27 34/47/28
s 4
f 11/18/29 10/16/30 8/8/31 2/10/32
s 1
f 12/19/33 47/61/34 48/62/35 4/4/36
s 2
f 9/15/37 12/19/38 4/4/39 6/6/40
s 3
f 13/20/41 9/15/25 34/47/28 35/48/42
s 4
f 15/23/43 14/21/44 10/16/30 11/18/29
s 1
f 16/24/45 46/60/46 47/61/34 12/19/33
s 2
f 13/20/47 16/24/48 12/19/38 9/15/37
s 3
f 17/25/49 13/20/41 35/48/42 36/49/50
s 4
f 19/28/51 18/26/52 14/21/44 15/23/43
s 1
f 20/29/53 45/59/54 46/60/46 16/24/45
s 2
f 17/25/55 20/29/56 16/24/48 13/20/47
s 3
f 21/30/57 17/25/49 36/49/50 37/50/58
s 4
f 23/33/59 22/31/60 18/26/52 19/28/51
s 1
f 24/34/61 44/58/62 45/59/54 20/29/53
s 2
f 21/30/63 24/34/64 20/29/56 17/25/55
s 3
f 25/35/65 21/30/57 37/50/58 38/51/66
s 4
f 27/38/67 26/36/68 22/31/60 23/33/59
s 1
f 28/39/69 43/57/70 44/58/62 24/34/61
s 2
f 25/35/71 28/39/72 24/34/64 21/30/63
s 3
f 29/40/10 25/35/65 38/51/66 39/52/11
s 4
f 31/43/15 30/41/14 26/36/68 27/38/67
s 1
f 32/44/3 42/56/2 43/57/70 28/39/69
s 2
f 29/40/7 32/44/6 28/39/72 25/35/71
s 3
f 34/47/28 33/45/27 65/81/73 66/83/74
f 98/117/75 97/118/76 99/119/77 100/120/78
f 101/121/79 98/117/75 100/120/78 102/122/80
f 103/123/81 101/121/79 102/122/80 104/124/82
f 105/125/83 103/123/81 104/124/82 106/126/84
f 107/127/85 105/125/83 106/126/84 108/128/86
f 40/54/12 39/52/11 71/88/87 72/90/88
s 6
f 72/89/89 73/91/90 41/55/22 40/53/21
s 1
f 73/91/91 74/92/92 42/56/2 41/55/1
f 43/57/70 42/56/2 74/92/92 75/93/93
f 44/58/62 43/57/70 75/93/93 76/94/94
f 45/59/54 44/58/62 76/94/94 77/95/95
f 46/60/46 45/59/54 77/95/95 78/96/96
f 47/61/34 46/60/46 78/96/96 79/97/97
f 48/62/35 47/61/34 79/97/97 80/98/98
s 5
f 80/98/99 65/82/100 33/46/18 48/62/17
s 3
f 50/65/101 49/63/102 8/8/103 10/16/104
f 51/66/105 50/65/101 10/16/104 14/21/106
f 52/67/107 51/66/105 14/21/106 18/26/108
f 53/68/109 52/67/107 18/26/108 22/31/110
f 54/69/111 53/68/109 22/31/110 26/36/112
f 55/70/113 54/69/111 26/36/112 30/41/114
f 56/72/115 55/70/113 30/41/114 7/7/116
s 6
f 7/13/117 1/1/118 57/73/119 56/71/120
s 1
f 1/1/121 31/42/122 58/74/123 57/73/124
f 59/75/125 58/74/123 31/42/122 27/37/126
f 60/76/127 59/75/125 27/37/126 23/32/128
f 61/77/129 60/76/127 23/32/128 19/27/130
f 62/78/131 61/77/129 19/27/130 15/22/132
f 63/79/133 62/78/131 15/22/132 11/17/134
f 64/80/135 63/79/133 11/17/134 2/2/136
s 5
f 2/2/137 8/11/138 49/64/139 64/80/140
s 3
f 66/83/74 65/81/73 81/99/141 82/101/142
f 67/84/143 66/83/74 82/101/142 83/102/144
f 68/85/145 67/84/143 83/102/144 84/103/146
f 69/86/147 68/85/145 84/103/146 85/104/148
f 70/87/149 69/86/147 85/104/148 86/105/150
f 71/88/87 70/87/149 86/105/150 87/106/151
f 72/90/88 71/88/87 87/106/151 88/108/152
s 6
f 88/107/153 89/109/154 73/91/90 72/89/89
s 1
f 89/109/155 90/110/156 74/92/92 73/91/91
f 75/93/93 74/92/92 90/110/156 91/111/157
f 76/94/94 75/93/93 91/111/157 92/112/158
f 77/95/95 76/94/94 92/112/158 93/113/159
f 78/96/96 77/95/95 93/113/159 94/114/160
f 79/97/97 78/96/96 94/114/160 95/115/161
f 80/98/98 79/97/97 95/115/161 96/116/162
s 5
f 96/116/163 81/100/164 65/82/100 80/98/99
s 3
f 82/101/142 81/99/141 49/63/102 50/65/101
f 110/129/165 109/130/166 111/131/167 112/132/168
f 113/133/169 110/129/165 112/132/168 114/134/170
f 115/135/171 113/133/169 114/134/170 116/136/172
f 117/137/173 115/135/171 116/136/172 118/138/174
f 119/139/175 117/137/173 118/138/174 120/140/176
f 88/108/152 87/106/151 55/70/113 56/72/115
s 6
f 56/71/120 57/73/119 89/109/154 88/107/153
s 1
f 57/73/124 58/74/123 90/110/156 89/109/155
f 91/111/157 90/110/156 58/74/123 59/75/125
f 92/112/158 91/111/157 59/75/125 60/76/127
f 93/113/159 92/112/158 60/76/127 61/77/129
f 94/114/160 93/113/159 61/77/129 62/78/131
f 95/115/161 94/114/160 62/78/131 63/79/133
f 96/116/162 95/115/161 63/79/133 64/80/135
s 5
f 64/80/140 49/64/139 81/100/164 96/116/163
s 3
f 35/48/42 34/47/28 97/118/76 98/117/75
s off
f 34/47/177 66/83/178 99/119/179 97/118/180
s 3
f 66/83/74 67/84/143 100/120/78 99/119/77
f 36/49/50 35/48/42 98/117/75 101/121/79
f 67/84/143 68/85/145 102/122/80 100/120/78
f 37/50/58 36/49/50 101/121/79 103/123/81
f 68/85/145 69/86/147 104/124/82 102/122/80
f 38/51/66 37/50/58 103/123/81 105/125/83
f 69/86/147 70/87/149 106/126/84 104/124/82
f 39/52/11 38/51/66 105/125/83 107/127/85
f 70/87/149 71/88/87 108/128/86 106/126/84
s off
f 71/88/181 39/52/182 107/127/183 108/128/184
s 3
f 83/102/144 82/101/142 109/130/166 110/129/165
s off
f 82/101/185 50/65/186 111/131/187 109/130/188
s 3
f 50/65/101 51/66/105 112/132/168 111/131/167
f 84/103/146 83/102/144 110/129/165 113/133/169
f 51/66/105 52/67/107 114/134/170 112/132/168
f 85/104/148 84/103/146 113/133/169 115/135/171
f 52/67/107 53/68/109 116/136/172 114/134/170
f 86/105/150 85/104/148 115/135/171 117/137/173
f 53/68/109 54/69/111 118/138/174 116/136/172
f 87/106/151 86/105/150 117/137/173 119/139/175
f 54/69/111 55/70/113 120/140/176 118/138/174
s off
f 55/70/189 87/106/190 119/139/191 120/140/192
